<?xml version="1.0" ?><!DOCTYPE svg  PUBLIC '-//W3C//DTD SVG 1.1//EN'  'http://www.w3.org/Graphics/SVG/1.1/DTD/svg11.dtd'><svg xmlns="http://www.w3.org/2000/svg" width="16" height="16" fill="none" viewBox="0 0 16 16"><path stroke="#fff" stroke-width="1.3" d="m10.515 12.492-3.97-.045c-1.774 0-3.212-1.394-3.212-3.108L3.38 2M13.19 12.448c0 .664-.56 1.235-1.294 1.235s-1.295-.571-1.295-1.235c0-.663.56-1.235 1.295-1.235.734 0 1.294.572 1.294 1.235Z"></path><path stroke="#fff" stroke-linecap="square" stroke-width="1.3" d="m3.6 5.718 6.738.012"></path><path stroke="#fff" stroke-width="1.3" d="M13.19 5.978c0 .663-.56 1.235-1.294 1.235S10.6 6.641 10.6 5.978c0-.663.56-1.235 1.295-1.235.734 0 1.294.572 1.294 1.235Z"></path></svg>